<svg xmlns="http://www.w3.org/2000/svg" width="30" height="26" fill="none">
  <defs/>
  <path fill="#eee" d="M.445364 8.84366c.396152-.49699.990466-.78211 1.630666-.78211h5.77758L10.9866.887741c.1942-.444785.7123-.648047 1.1571-.453691.4449.194238.648.71238.4537 1.15723L9.77173 8.06161H20.2283l-2.8257-6.47033c-.1943-.44485.0088-.962934.4537-1.15723.4447-.194356.9629.008789 1.1571.453691l3.133 7.173869h5.7776c.6402 0 1.2345.28506 1.6306.78211.3889.48797.5324 1.11527.3937 1.72128l-3.0854 13.4765c-.2154.941-1.0478 1.5982-2.0243 1.5982H5.1614c-.97647 0-1.80891-.6572-2.02436-1.5982L.051672 10.5649c-.138691-.60597.0048065-1.23327.393692-1.72124zM5.1614 23.8819h19.6772c.1492 0 .28-.0979.3108-.2328l3.0854-13.4764c.0242-.1058-.0164-.18535-.0548-.23346-.0357-.04476-.1164-.11982-.256-.11982h-5.01l.2302.52718c.1943.4448-.0088.9629-.4537 1.1572-.1144.0501-.2337.0737-.3512.0737-.3388 0-.6617-.197-.8059-.5273l-.5375-1.23066H9.00398L8.4665 11.0502c-.14426.3303-.46711.5273-.8059.5273-.11742 0-.23678-.0236-.35127-.0737-.44484-.1942-.64799-.7124-.45369-1.1572l.23021-.52718H2.07591c-.13969 0-.22037.07506-.256.11982-.03837.04817-.07904.12776-.05484.23336l3.08537 13.4766c.03094.1348.16172.2327.31096.2327z"/>
  <path fill="#eee" d="M20.2734 13.628c.4854 0 .8789.3935.8789.8789v6.4453c0 .4854-.3935.8789-.8789.8789s-.8789-.3935-.8789-.8789v-6.4453c0-.4854.3935-.8789.8789-.8789zM15 13.628c.4854 0 .8789.3935.8789.8789v6.4453c0 .4854-.3935.8789-.8789.8789s-.8789-.3935-.8789-.8789v-6.4453c0-.4854.3935-.8789.8789-.8789zM9.72656 13.628c.48544 0 .87894.3935.87894.8789v6.4453c0 .4854-.3935.8789-.87894.8789-.48539 0-.8789-.3935-.8789-.8789v-6.4453c.00005-.4854.39351-.8789.8789-.8789z"/>
</svg>